<svg xmlns="http://www.w3.org/2000/svg" xmlns:xlink="http://www.w3.org/1999/xlink" viewBox="4194 -645 45 45">
  <defs>
    <style>
      .cls-1 {
        fill: #f79413;
      }

      .cls-2 {
        fill: #fff;
      }

      .cls-3 {
        clip-path: url(#clip-path);
      }
    </style>
    <clipPath id="clip-path">
      <circle id="_version_:_1.5.0_viewSource_:_x_:_0_y_:_0_width_:_40_height_:_40_resources_:_clipPaths_:_filters_:_gradients_:_masks_:_patterns_:_children_:_style_:_stroke_:_type_:_none_fill_:_type_:_solid_color_:_mode_:_RGB_value_:_r_:_0_g_:_0_b_:_0_name_:_type_:_group_group_:_children_:_style_:_stroke_:_type_:_none_fill_:_type_:_solid_color_:_mode_:_RGB_value_:_r_:_0_g_:_0_b_:_0_name_:_type_:_shape_shape_:_type_:_path_path_:_M_3.837_20.516_c_-0.276_0_-0.5_-0.207_-0.5_-0.482_V_20_c_0_-1.747_0.269_-3.468_0.8_-5.115_c_0.085_-0.263_0.367_-0.405_0.629_-0.323_c_0.263_0.085_0.407_0.367_0.323_0.629_C_4.59_16.739_4.337_18.357_4.337_20_C_4.337_20.275_4.114_20.516_3.837_20.516_Z_M_24.854_34.896_c_-1.558_0.506_-3.185_0.765_-4.836_0.767_c_-0.276_0_-0.5_0.226_-0.5_0.5_s_0.224_0.5_0.5_0.5_l_0_0_c_1.756_-0.002_3.489_-0.276_5.146_-0.815_c_0.263_-0.084_0.405_-0.367_0.319_-0.63_C_25.398_34.956_25.115_34.811_24.854_34.896_Z_M_5.108_24.868_c_-0.085_-0.263_-0.364_-0.406_-0.63_-0.32_c_-0.262_0.085_-0.406_0.368_-0.32_0.63_c_0.542_1.66_1.341_3.221_2.376_4.639_c_0.098_0.135_0.25_0.205_0.404_0.205_c_0.102_0_0.206_-0.03_0.294_-0.097_c_0.223_-0.163_0.272_-0.476_0.109_-0.698_C_6.37_27.895_5.618_26.428_5.108_24.868_Z_M_24.794_5.084_c_1.563_0.502_3.033_1.246_4.37_2.212_c_0.089_0.064_0.191_0.095_0.292_0.095_c_0.155_0_0.308_-0.072_0.405_-0.207_c_0.162_-0.224_0.111_-0.537_-0.111_-0.698_c_-1.422_-1.028_-2.986_-1.82_-4.65_-2.354_c_-0.263_-0.083_-0.543_0.061_-0.629_0.323_C_24.387_4.718_24.531_5_24.794_5.084_Z_M_6.9_11.03_c_0.155_0_0.308_-0.072_0.405_-0.207_C_8.27_9.49_9.432_8.322_10.761_7.35_c_0.223_-0.163_0.271_-0.476_0.108_-0.699_c_-0.162_-0.223_-0.475_-0.271_-0.699_-0.108_c_-1.413_1.033_-2.649_2.276_-3.675_3.693_c_-0.162_0.224_-0.112_0.536_0.112_0.698_C_6.696_11_6.799_11.03_6.9_11.03_Z_M_14.962_5.138_c_0.051_0_0.104_-0.008_0.156_-0.025_c_1.556_-0.51_3.183_-0.771_4.835_-0.775_c_0.275_-0.001_0.5_-0.225_0.499_-0.501_c_-0.001_-0.275_-0.226_-0.499_-0.5_-0.499_h_-0.001_c_-1.757_0.005_-3.488_0.283_-5.144_0.825_c_-0.262_0.086_-0.405_0.368_-0.319_0.631_C_14.556_5.004_14.751_5.138_14.962_5.138_Z_M_15.176_34.906_c_-1.562_-0.506_-3.031_-1.252_-4.366_-2.221_c_-0.223_-0.164_-0.537_-0.112_-0.698_0.109_C_9.95_33.02_10_33.332_10.223_33.494_c_1.42_1.029_2.983_1.824_4.645_2.361_c_0.051_0.018_0.103_0.023_0.154_0.023_c_0.211_0_0.407_-0.135_0.476_-0.346_C_15.583_35.273_15.439_34.991_15.176_34.906_Z_M_32.676_29.202_c_-0.968_1.33_-2.133_2.496_-3.463_3.465_c_-0.223_0.163_-0.271_0.476_-0.109_0.699_c_0.099_0.134_0.25_0.206_0.404_0.206_c_0.102_0_0.205_-0.031_0.294_-0.096_c_1.415_-1.031_2.653_-2.271_3.683_-3.688_c_0.164_-0.225_0.113_-0.536_-0.108_-0.698_C_33.15_28.928_32.838_28.979_32.676_29.202_Z_M_36.163_19.468_c_-0.276_0_-0.5_0.255_-0.5_0.532_c_0_1.652_-0.256_3.281_-0.763_4.839_c_-0.084_0.263_0.06_0.544_0.322_0.63_c_0.051_0.018_0.103_0.024_0.152_0.024_c_0.211_0_0.407_-0.134_0.477_-0.347_c_0.539_-1.656_0.812_-3.39_0.812_-5.146_v_-0.064_C_36.663_19.66_36.439_19.468_36.163_19.468_Z_M_34.882_15.103_c_0.069_0.21_0.265_0.344_0.476_0.344_c_0.053_0_0.104_-0.008_0.156_-0.025_c_0.262_-0.086_0.404_-0.369_0.318_-0.631_c_-0.546_-1.66_-1.35_-3.219_-2.387_-4.633_c_-0.164_-0.223_-0.478_-0.271_-0.698_-0.107_c_-0.222_0.164_-0.271_0.476_-0.106_0.699_C_33.615_12.078_34.369_13.543_34.882_15.103_Z_M_40_20_c_0_11.027_-8.973_20_-20_20_C_8.972_40_0_31.027_0_20_C_0_8.972_8.972_0_20_0_C_31.027_0_40_8.972_40_20_Z_M_38_20_c_0_-9.925_-8.075_-18_-18_-18_S_2_10.075_2_20_s_8.075_18_18_18_S_38_29.925_38_20_Z_M_21.686_20.818_c_-0.334_-0.127_-0.844_-0.191_-1.528_-0.191_h_-1.563_v_2.614_c_0.006_0.37_0.02_0.586_0.043_0.649_c_0.029_0.079_0.076_0.137_0.143_0.168_c_0.066_0.03_0.246_0.049_0.539_0.049_H_20.2_c_0.512_0_0.937_-0.049_1.272_-0.146_c_0.338_-0.094_0.625_-0.292_0.859_-0.593_s_0.354_-0.66_0.354_-1.082_c_0_-0.357_-0.084_-0.66_-0.25_-0.91_C_22.27_21.133_22.02_20.945_21.686_20.818_Z_M_34.436_20_c_0_7.973_-6.463_14.436_-14.436_14.436_c_-7.972_0_-14.435_-6.463_-14.435_-14.436_c_0_-7.972_6.463_-14.435_14.435_-14.435_C_27.973_5.565_34.436_12.028_34.436_20_Z_M_25.822_22.609_c_0_-0.536_-0.127_-1.021_-0.381_-1.457_c_-0.254_-0.438_-0.6_-0.775_-1.029_-1.02_c_-0.301_-0.174_-0.732_-0.333_-1.299_-0.476_c_0.527_-0.179_0.951_-0.405_1.271_-0.68_c_0.321_-0.274_0.567_-0.59_0.738_-0.947_c_0.17_-0.358_0.255_-0.736_0.255_-1.134_c_0_-0.548_-0.161_-1.052_-0.481_-1.511_c_-0.324_-0.458_-0.785_-0.811_-1.385_-1.055_c_-0.234_-0.095_-0.512_-0.167_-0.811_-0.225_v_-2.131_h_-2.045_v_1.987_h_-1.314_v_-1.987_h_-2.045_v_1.987_h_-3.119_v_1.67_h_0.477_c_0.317_0_0.532_0.03_0.645_0.087_c_0.113_0.057_0.192_0.136_0.238_0.233_c_0.047_0.098_0.07_0.327_0.07_0.684_v_6.734_c_0_0.354_-0.022_0.579_-0.07_0.68_c_-0.046_0.102_-0.125_0.18_-0.238_0.233_c_-0.113_0.055_-0.327_0.083_-0.645_0.083_h_-0.477_v_1.67_h_3.119_v_1.986_h_2.045_v_-1.986_h_1.163_c_0.054_0_0.103_-0.001_0.152_-0.001_v_1.987_h_2.045_v_-2.158_c_0.343_-0.066_0.646_-0.149_0.901_-0.254_c_0.705_-0.281_1.25_-0.691_1.639_-1.231_C_25.628_23.841_25.822_23.25_25.822_22.609_Z_M_21.454_18.679_c_0.333_-0.115_0.581_-0.29_0.749_-0.521_c_0.167_-0.233_0.25_-0.504_0.25_-0.81_c_0_-0.317_-0.079_-0.588_-0.237_-0.813_c_-0.159_-0.225_-0.39_-0.385_-0.688_-0.48_c_-0.301_-0.096_-0.838_-0.144_-1.609_-0.144_h_-1.324_v_2.943_h_1.324_C_20.611_18.853_21.122_18.795_21.454_18" data-name="{
	&quot;version&quot;: &quot;1.5.0&quot;,
	&quot;viewSource&quot;: {
		&quot;x&quot;: 0,
		&quot;y&quot;: 0,
		&quot;width&quot;: 40,
		&quot;height&quot;: 40
	},
	&quot;resources&quot;: {
		&quot;clipPaths&quot;: {},
		&quot;filters&quot;: {},
		&quot;gradients&quot;: {},
		&quot;masks&quot;: {},
		&quot;patterns&quot;: {}
	},
	&quot;children&quot;: [
		{
			&quot;style&quot;: {
				&quot;stroke&quot;: {
					&quot;type&quot;: &quot;none&quot;
				},
				&quot;fill&quot;: {
					&quot;type&quot;: &quot;solid&quot;,
					&quot;color&quot;: {
						&quot;mode&quot;: &quot;RGB&quot;,
						&quot;value&quot;: {
							&quot;r&quot;: 0,
							&quot;g&quot;: 0,
							&quot;b&quot;: 0
						}
					}
				}
			},
			&quot;name&quot;: &quot;&quot;,
			&quot;type&quot;: &quot;group&quot;,
			&quot;group&quot;: {
				&quot;children&quot;: [
					{
						&quot;style&quot;: {
							&quot;stroke&quot;: {
								&quot;type&quot;: &quot;none&quot;
							},
							&quot;fill&quot;: {
								&quot;type&quot;: &quot;solid&quot;,
								&quot;color&quot;: {
									&quot;mode&quot;: &quot;RGB&quot;,
									&quot;value&quot;: {
										&quot;r&quot;: 0,
										&quot;g&quot;: 0,
										&quot;b&quot;: 0
									}
								}
							}
						},
						&quot;name&quot;: &quot;&quot;,
						&quot;type&quot;: &quot;shape&quot;,
						&quot;shape&quot;: {
							&quot;type&quot;: &quot;path&quot;,
							&quot;path&quot;: &quot;M 3.837 20.516 c -0.276 0 -0.5 -0.207 -0.5 -0.482 V 20 c 0 -1.747 0.269 -3.468 0.8 -5.115 c 0.085 -0.263 0.367 -0.405 0.629 -0.323 c 0.263 0.085 0.407 0.367 0.323 0.629 C 4.59 16.739 4.337 18.357 4.337 20 C 4.337 20.275 4.114 20.516 3.837 20.516 Z M 24.854 34.896 c -1.558 0.506 -3.185 0.765 -4.836 0.767 c -0.276 0 -0.5 0.226 -0.5 0.5 s 0.224 0.5 0.5 0.5 l 0 0 c 1.756 -0.002 3.489 -0.276 5.146 -0.815 c 0.263 -0.084 0.405 -0.367 0.319 -0.63 C 25.398 34.956 25.115 34.811 24.854 34.896 Z M 5.108 24.868 c -0.085 -0.263 -0.364 -0.406 -0.63 -0.32 c -0.262 0.085 -0.406 0.368 -0.32 0.63 c 0.542 1.66 1.341 3.221 2.376 4.639 c 0.098 0.135 0.25 0.205 0.404 0.205 c 0.102 0 0.206 -0.03 0.294 -0.097 c 0.223 -0.163 0.272 -0.476 0.109 -0.698 C 6.37 27.895 5.618 26.428 5.108 24.868 Z M 24.794 5.084 c 1.563 0.502 3.033 1.246 4.37 2.212 c 0.089 0.064 0.191 0.095 0.292 0.095 c 0.155 0 0.308 -0.072 0.405 -0.207 c 0.162 -0.224 0.111 -0.537 -0.111 -0.698 c -1.422 -1.028 -2.986 -1.82 -4.65 -2.354 c -0.263 -0.083 -0.543 0.061 -0.629 0.323 C 24.387 4.718 24.531 5 24.794 5.084 Z M 6.9 11.03 c 0.155 0 0.308 -0.072 0.405 -0.207 C 8.27 9.49 9.432 8.322 10.761 7.35 c 0.223 -0.163 0.271 -0.476 0.108 -0.699 c -0.162 -0.223 -0.475 -0.271 -0.699 -0.108 c -1.413 1.033 -2.649 2.276 -3.675 3.693 c -0.162 0.224 -0.112 0.536 0.112 0.698 C 6.696 11 6.799 11.03 6.9 11.03 Z M 14.962 5.138 c 0.051 0 0.104 -0.008 0.156 -0.025 c 1.556 -0.51 3.183 -0.771 4.835 -0.775 c 0.275 -0.001 0.5 -0.225 0.499 -0.501 c -0.001 -0.275 -0.226 -0.499 -0.5 -0.499 h -0.001 c -1.757 0.005 -3.488 0.283 -5.144 0.825 c -0.262 0.086 -0.405 0.368 -0.319 0.631 C 14.556 5.004 14.751 5.138 14.962 5.138 Z M 15.176 34.906 c -1.562 -0.506 -3.031 -1.252 -4.366 -2.221 c -0.223 -0.164 -0.537 -0.112 -0.698 0.109 C 9.95 33.02 10 33.332 10.223 33.494 c 1.42 1.029 2.983 1.824 4.645 2.361 c 0.051 0.018 0.103 0.023 0.154 0.023 c 0.211 0 0.407 -0.135 0.476 -0.346 C 15.583 35.273 15.439 34.991 15.176 34.906 Z M 32.676 29.202 c -0.968 1.33 -2.133 2.496 -3.463 3.465 c -0.223 0.163 -0.271 0.476 -0.109 0.699 c 0.099 0.134 0.25 0.206 0.404 0.206 c 0.102 0 0.205 -0.031 0.294 -0.096 c 1.415 -1.031 2.653 -2.271 3.683 -3.688 c 0.164 -0.225 0.113 -0.536 -0.108 -0.698 C 33.15 28.928 32.838 28.979 32.676 29.202 Z M 36.163 19.468 c -0.276 0 -0.5 0.255 -0.5 0.532 c 0 1.652 -0.256 3.281 -0.763 4.839 c -0.084 0.263 0.06 0.544 0.322 0.63 c 0.051 0.018 0.103 0.024 0.152 0.024 c 0.211 0 0.407 -0.134 0.477 -0.347 c 0.539 -1.656 0.812 -3.39 0.812 -5.146 v -0.064 C 36.663 19.66 36.439 19.468 36.163 19.468 Z M 34.882 15.103 c 0.069 0.21 0.265 0.344 0.476 0.344 c 0.053 0 0.104 -0.008 0.156 -0.025 c 0.262 -0.086 0.404 -0.369 0.318 -0.631 c -0.546 -1.66 -1.35 -3.219 -2.387 -4.633 c -0.164 -0.223 -0.478 -0.271 -0.698 -0.107 c -0.222 0.164 -0.271 0.476 -0.106 0.699 C 33.615 12.078 34.369 13.543 34.882 15.103 Z M 40 20 c 0 11.027 -8.973 20 -20 20 C 8.972 40 0 31.027 0 20 C 0 8.972 8.972 0 20 0 C 31.027 0 40 8.972 40 20 Z M 38 20 c 0 -9.925 -8.075 -18 -18 -18 S 2 10.075 2 20 s 8.075 18 18 18 S 38 29.925 38 20 Z M 21.686 20.818 c -0.334 -0.127 -0.844 -0.191 -1.528 -0.191 h -1.563 v 2.614 c 0.006 0.37 0.02 0.586 0.043 0.649 c 0.029 0.079 0.076 0.137 0.143 0.168 c 0.066 0.03 0.246 0.049 0.539 0.049 H 20.2 c 0.512 0 0.937 -0.049 1.272 -0.146 c 0.338 -0.094 0.625 -0.292 0.859 -0.593 s 0.354 -0.66 0.354 -1.082 c 0 -0.357 -0.084 -0.66 -0.25 -0.91 C 22.27 21.133 22.02 20.945 21.686 20.818 Z M 34.436 20 c 0 7.973 -6.463 14.436 -14.436 14.436 c -7.972 0 -14.435 -6.463 -14.435 -14.436 c 0 -7.972 6.463 -14.435 14.435 -14.435 C 27.973 5.565 34.436 12.028 34.436 20 Z M 25.822 22.609 c 0 -0.536 -0.127 -1.021 -0.381 -1.457 c -0.254 -0.438 -0.6 -0.775 -1.029 -1.02 c -0.301 -0.174 -0.732 -0.333 -1.299 -0.476 c 0.527 -0.179 0.951 -0.405 1.271 -0.68 c 0.321 -0.274 0.567 -0.59 0.738 -0.947 c 0.17 -0.358 0.255 -0.736 0.255 -1.134 c 0 -0.548 -0.161 -1.052 -0.481 -1.511 c -0.324 -0.458 -0.785 -0.811 -1.385 -1.055 c -0.234 -0.095 -0.512 -0.167 -0.811 -0.225 v -2.131 h -2.045 v 1.987 h -1.314 v -1.987 h -2.045 v 1.987 h -3.119 v 1.67 h 0.477 c 0.317 0 0.532 0.03 0.645 0.087 c 0.113 0.057 0.192 0.136 0.238 0.233 c 0.047 0.098 0.07 0.327 0.07 0.684 v 6.734 c 0 0.354 -0.022 0.579 -0.07 0.68 c -0.046 0.102 -0.125 0.18 -0.238 0.233 c -0.113 0.055 -0.327 0.083 -0.645 0.083 h -0.477 v 1.67 h 3.119 v 1.986 h 2.045 v -1.986 h 1.163 c 0.054 0 0.103 -0.001 0.152 -0.001 v 1.987 h 2.045 v -2.158 c 0.343 -0.066 0.646 -0.149 0.901 -0.254 c 0.705 -0.281 1.25 -0.691 1.639 -1.231 C 25.628 23.841 25.822 23.25 25.822 22.609 Z M 21.454 18.679 c 0.333 -0.115 0.581 -0.29 0.749 -0.521 c 0.167 -0.233 0.25 -0.504 0.25 -0.81 c 0 -0.317 -0.079 -0.588 -0.237 -0.813 c -0.159 -0.225 -0.39 -0.385 -0.688 -0.48 c -0.301 -0.096 -0.838 -0.144 -1.609 -0.144 h -1.324 v 2.943 h 1.324 C 20.611 18.853 21.122 18.795 21.454 18" class="cls-1" cx="22.5" cy="22.5" r="22.5"/>
    </clipPath>
  </defs>
  <g id="Group_1960" data-name="Group 1960" transform="translate(3689 -1119)">
    <g id="Group_1958" data-name="Group 1958" transform="translate(-2 -1)">
      <circle id="Ellipse_474" data-name="Ellipse 474" class="cls-1" cx="21.284" cy="21.284" r="21.284" transform="translate(508.216 476.216)"/>
      <circle id="Ellipse_475" data-name="Ellipse 475" class="cls-2" cx="10.946" cy="10.946" r="10.946" transform="translate(517.946 485.946)"/>
    </g>
    <g id="Group_1959" data-name="Group 1959" transform="translate(-2 -1)">
      <g id="Mask_Group_111" data-name="Mask Group 111" class="cls-3" transform="translate(507 475)">
        <g id="bitcoin-coin">
          <path id="Path_273" data-name="Path 273" class="cls-1" d="M4.317,23.08a.546.546,0,0,1-.562-.542V22.5a18.725,18.725,0,0,1,.9-5.754.562.562,0,0,1,1.071.344,17.607,17.607,0,0,0-.846,5.41A.578.578,0,0,1,4.317,23.08ZM27.961,39.258a17.656,17.656,0,0,1-5.44.863.563.563,0,0,0,0,1.125h0a18.763,18.763,0,0,0,5.789-.917.563.563,0,0,0-.349-1.071ZM5.746,27.977a.562.562,0,1,0-1.069.349,18.668,18.668,0,0,0,2.673,5.219.559.559,0,0,0,.454.231.543.543,0,0,0,.331-.109.562.562,0,0,0,.123-.785A17.6,17.6,0,0,1,5.746,27.977ZM27.893,5.72a17.541,17.541,0,0,1,4.916,2.488.562.562,0,0,0,.659-.911,18.635,18.635,0,0,0-5.231-2.648.562.562,0,0,0-.344,1.071ZM7.763,12.409a.56.56,0,0,0,.456-.233,17.668,17.668,0,0,1,3.888-3.907.563.563,0,1,0-.665-.908,18.786,18.786,0,0,0-4.134,4.155.562.562,0,0,0,.126.785A.55.55,0,0,0,7.763,12.409Zm9.07-6.629a.566.566,0,0,0,.175-.028,17.574,17.574,0,0,1,5.439-.872.563.563,0,0,0,0-1.125h0a18.749,18.749,0,0,0-5.787.928.562.562,0,0,0,.174,1.1Zm.241,33.489a17.56,17.56,0,0,1-4.912-2.5.562.562,0,1,0-.66.91,18.686,18.686,0,0,0,5.226,2.656.515.515,0,0,0,.173.026.56.56,0,0,0,.173-1.094ZM36.76,32.852a17.711,17.711,0,0,1-3.9,3.9.563.563,0,1,0,.663.91,18.8,18.8,0,0,0,4.143-4.149.562.562,0,1,0-.91-.659ZM40.683,21.9a.594.594,0,0,0-.562.6,17.568,17.568,0,0,1-.858,5.444.565.565,0,0,0,.362.709.512.512,0,0,0,.171.027.565.565,0,0,0,.537-.39,18.688,18.688,0,0,0,.914-5.789v-.072A.533.533,0,0,0,40.683,21.9Zm-1.441-4.911a.564.564,0,0,0,.536.387.556.556,0,0,0,.175-.028.562.562,0,0,0,.358-.71,18.664,18.664,0,0,0-2.685-5.212.562.562,0,1,0-.9.666A17.527,17.527,0,0,1,39.242,16.991ZM45,22.5A22.5,22.5,0,1,1,22.5,0,22.527,22.527,0,0,1,45,22.5Zm-2.25,0A20.25,20.25,0,1,0,22.5,42.75,20.273,20.273,0,0,0,42.75,22.5ZM24.4,23.42a5.149,5.149,0,0,0-1.719-.215H20.919v2.941a3.741,3.741,0,0,0,.048.73.316.316,0,0,0,.161.189,1.982,1.982,0,0,0,.606.055h.99a5.25,5.25,0,0,0,1.431-.164,1.828,1.828,0,0,0,.966-.667,1.923,1.923,0,0,0,.4-1.217,1.809,1.809,0,0,0-.281-1.024A1.723,1.723,0,0,0,24.4,23.42ZM38.74,22.5A16.24,16.24,0,1,1,22.5,6.261,16.24,16.24,0,0,1,38.74,22.5ZM29.05,25.435a3.194,3.194,0,0,0-.429-1.639,3.079,3.079,0,0,0-1.158-1.147A5.876,5.876,0,0,0,26,22.113a4.291,4.291,0,0,0,1.43-.765,3.227,3.227,0,0,0,.83-1.065,2.957,2.957,0,0,0-.254-2.976A3.435,3.435,0,0,0,26.45,16.12a5.009,5.009,0,0,0-.912-.253v-2.4h-2.3V15.7H21.759V13.47h-2.3V15.7H15.949v1.879h.537a1.821,1.821,0,0,1,.726.1.566.566,0,0,1,.268.262,2.258,2.258,0,0,1,.079.769v7.576a2.223,2.223,0,0,1-.079.765.525.525,0,0,1-.268.262,1.883,1.883,0,0,1-.726.093h-.537v1.879h3.509v2.234h2.3V29.288h1.479v2.235h2.3V29.095a5.345,5.345,0,0,0,1.014-.286A4.049,4.049,0,0,0,28.4,27.424,3.328,3.328,0,0,0,29.05,25.435Zm-4.914-4.421a1.683,1.683,0,0,0,.843-.586,1.526,1.526,0,0,0,.281-.911,1.551,1.551,0,0,0-.267-.915,1.455,1.455,0,0,0-.774-.54,6.824,6.824,0,0,0-1.81-.162H20.919v3.311h1.489A5.646,5.646,0,0,0,24.136,21.014Z"/>
        </g>
      </g>
    </g>
  </g>
</svg>
