<svg xmlns="http://www.w3.org/2000/svg" viewBox="272 9666.5 60 60">
  <defs>
    <style>
      .cls-1 {
        fill: #f79413;
      }

      .cls-2 {
        fill: #fff;
      }
    </style>
  </defs>
  <g id="Group_1962" data-name="Group 1962" transform="translate(131 8966.5)">
    <g id="Group_1454" data-name="Group 1454" transform="translate(-399 399)">
      <circle id="Ellipse_646" data-name="Ellipse 646" class="cls-1" cx="30" cy="30" r="30" transform="translate(540 301)"/>
    </g>
    <g id="tree-structure" transform="translate(156 715)">
      <path id="Path_739" data-name="Path 739" class="cls-2" d="M27.686,22.654V18.989a5.351,5.351,0,0,0-5.505-5.505H18.989c-2.253,0-2.463-1.106-2.473-1.676V7.347a3.83,3.83,0,1,0-3.032,0v4.462c0,.413-.119,1.676-2.473,1.676H7.819a5.351,5.351,0,0,0-5.505,5.505v3.664a3.83,3.83,0,1,0,3.032,0V18.989a2.328,2.328,0,0,1,2.473-2.473h3.191a7.243,7.243,0,0,0,2.473-.395v6.533a3.829,3.829,0,1,0,3.032,0V16.121a7.243,7.243,0,0,0,2.473.395h3.191a2.334,2.334,0,0,1,2.473,2.473v3.664a3.83,3.83,0,1,0,3.032,0ZM6.039,26.17A2.209,2.209,0,1,1,3.83,23.961,2.21,2.21,0,0,1,6.039,26.17ZM12.791,3.83A2.209,2.209,0,1,1,15,6.039,2.21,2.21,0,0,1,12.791,3.83Zm4.419,22.34A2.209,2.209,0,1,1,15,23.961,2.21,2.21,0,0,1,17.209,26.17ZM26.17,28.38A2.209,2.209,0,1,1,28.38,26.17,2.21,2.21,0,0,1,26.17,28.38Z"/>
    </g>
  </g>
</svg>
