<svg xmlns="http://www.w3.org/2000/svg" viewBox="194.007 17.361 78.617 78.715">
  <defs>
    <style>
      .cls-1 {
        fill: #fff;
      }
    </style>
  </defs>
  <g id="Group_2201" data-name="Group 2201" transform="translate(198.007 14.361)">
    <path id="Subtraction_4" data-name="Subtraction 4" class="cls-1" d="M39.357,78.715A39.356,39.356,0,1,1,78.617,36.557l-.305-1.705a10.459,10.459,0,0,0-20.513-2.1,11.484,11.484,0,0,0-5.132-1.194,11.637,11.637,0,0,0-10.9,7.63q-.345-.025-.7-.025a9.451,9.451,0,0,0-8.541,5.327q-.1,0-.205,0a6.845,6.845,0,0,0-.381,13.679l.381.01H73.93A39.37,39.37,0,0,1,39.357,78.715Z" transform="translate(-4 3)"/>
  </g>
</svg>
