<svg xmlns="http://www.w3.org/2000/svg" xmlns:xlink="http://www.w3.org/1999/xlink" viewBox="4496 1957 18 18"><defs><style>.a,.e{fill:#fff;}.a{stroke:#95989a;}.b{fill:none;}.c{clip-path:url(#a);}.d{clip-path:url(#b);}</style><clipPath id="a"><rect class="b" width="18" height="18"/></clipPath><clipPath id="b"><circle class="a" cx="9" cy="9" r="9" transform="translate(1050 31)"/></clipPath></defs><g class="c" transform="translate(4496 1957)"><g transform="translate(-1050 -31)"><g class="d"><g transform="translate(1050 31)"><path class="e" d="M9.947,18H8.053a1.342,1.342,0,0,1-1.34-1.341V14.6l-.057-.024L5.2,16.033a1.341,1.341,0,0,1-1.9,0L1.967,14.694a1.342,1.342,0,0,1,0-1.9L3.42,11.345,3.4,11.287H1.341A1.343,1.343,0,0,1,0,9.947V8.053a1.342,1.342,0,0,1,1.341-1.34H3.4l.024-.057L1.966,5.2a1.342,1.342,0,0,1,0-1.9L3.306,1.966a1.34,1.34,0,0,1,1.9,0L6.655,3.42,6.712,3.4V1.341A1.342,1.342,0,0,1,8.053,0H9.947a1.342,1.342,0,0,1,1.34,1.341V3.4l.057.024L12.8,1.966a1.341,1.341,0,0,1,1.9,0l1.34,1.34a1.341,1.341,0,0,1,0,1.9L14.579,6.655c.008.019.016.038.024.057h2.056A1.343,1.343,0,0,1,18,8.052V9.946a1.34,1.34,0,0,1-1.34,1.34H14.6l-.024.057L16.033,12.8a1.343,1.343,0,0,1,0,1.9l-1.339,1.339a1.34,1.34,0,0,1-1.9,0l-1.453-1.453-.057.024v2.056A1.342,1.342,0,0,1,9.947,18Zm-3.41-4.64a.549.549,0,0,1,.248.059,4.813,4.813,0,0,0,.656.273.555.555,0,0,1,.38.526v2.441a.232.232,0,0,0,.231.232H9.947a.232.232,0,0,0,.231-.232V14.218a.555.555,0,0,1,.38-.526,4.989,4.989,0,0,0,.655-.273.554.554,0,0,1,.641.1l1.727,1.727a.232.232,0,0,0,.328,0l1.339-1.339a.233.233,0,0,0,0-.328l-1.727-1.727a.555.555,0,0,1-.1-.641,4.836,4.836,0,0,0,.274-.656.555.555,0,0,1,.526-.38h2.441a.231.231,0,0,0,.231-.231V8.053a.232.232,0,0,0-.232-.232H14.218a.554.554,0,0,1-.526-.38,4.92,4.92,0,0,0-.274-.656.555.555,0,0,1,.1-.641l1.727-1.728a.232.232,0,0,0,0-.327L13.91,2.751a.233.233,0,0,0-.328,0L11.855,4.478a.554.554,0,0,1-.641.1,4.845,4.845,0,0,0-.655-.273.555.555,0,0,1-.38-.526V1.341a.232.232,0,0,0-.232-.232H8.053a.232.232,0,0,0-.231.232V3.781a.555.555,0,0,1-.38.526,4.923,4.923,0,0,0-.656.274.554.554,0,0,1-.641-.1L4.417,2.751a.232.232,0,0,0-.328,0L2.751,4.09a.232.232,0,0,0,0,.328L4.478,6.145a.554.554,0,0,1,.1.641,4.919,4.919,0,0,0-.274.656.554.554,0,0,1-.526.38H1.341a.232.232,0,0,0-.232.232V9.947a.232.232,0,0,0,.232.232H3.781a.554.554,0,0,1,.526.379,5,5,0,0,0,.274.656.555.555,0,0,1-.1.641L2.751,13.583a.232.232,0,0,0,0,.327L4.09,15.249a.232.232,0,0,0,.328,0l1.727-1.727A.553.553,0,0,1,6.537,13.359ZM9,11.645A2.646,2.646,0,1,1,11.645,9,2.649,2.649,0,0,1,9,11.645ZM9,7.464A1.536,1.536,0,1,0,10.536,9,1.538,1.538,0,0,0,9,7.464Z"/></g></g></g></g></svg>