<svg xmlns="http://www.w3.org/2000/svg" viewBox="4552 -698 60 60">
  <defs>
    <style>
      .cls-1 {
        fill: #68ceeb;
      }

      .cls-2 {
        fill: #fff;
      }
    </style>
  </defs>
  <g id="Group_1958" data-name="Group 1958" transform="translate(3971 -953)">
    <circle id="Ellipse_687" data-name="Ellipse 687" class="cls-1" cx="30" cy="30" r="30" transform="translate(581 255)"/>
    <g id="paper-airplane-outline" transform="translate(593 197.182)">
      <path id="Path_891" data-name="Path 891" class="cls-2" d="M35.029,75.659a.838.838,0,0,0-.111-.386c-.02-.04,0-.088-.033-.126-.014-.015-.033-.013-.048-.025s-.016-.046-.029-.062a.869.869,0,0,0-.461-.237c-.018,0-.027.007-.044,0a.867.867,0,0,0-.459.054L.516,89.5a.868.868,0,0,0,.146,1.637L8.2,92.963l3.665,7.82c.025.051.073.076.107.12.016.027.006.062.029.086a.616.616,0,0,0,.131.1.48.48,0,0,0,.107.078.85.85,0,0,0,.412.121.808.808,0,0,0,.1-.006.849.849,0,0,0,.426-.192c.014-.012.037-.006.054-.019l5.776-5.1,5.715,1.875a.88.88,0,0,0,1.07-.481l9.2-21.346a1.072,1.072,0,0,0,.014-.163A.7.7,0,0,0,35.029,75.659ZM13.6,92.82c-.016.011-.01.032-.025.045a.87.87,0,0,0-.247.42l-.972,4.444-2.431-5.2,15-9.78ZM24.89,80.7,8.653,91.284,3.568,90.053ZM14.067,98.013l.746-3.419,2.279.747Zm10.445-2.064-8.634-2.834,15.975-14.2Z" transform="translate(0)"/>
    </g>
  </g>
</svg>
