<svg xmlns="http://www.w3.org/2000/svg" viewBox="254 9786.5 60 60">
  <defs>
    <style>
      .cls-1 {
        fill: #68ceeb;
      }

      .cls-2 {
        fill: #fff;
      }
    </style>
  </defs>
  <g id="Group_1963" data-name="Group 1963" transform="translate(14 7566.5)">
    <g id="Group_1458" data-name="Group 1458" transform="translate(-300 1919)">
      <circle id="Ellipse_649" data-name="Ellipse 649" class="cls-1" cx="30" cy="30" r="30" transform="translate(540 301)"/>
    </g>
    <g id="medal" transform="translate(192.081 2230)">
      <g id="Group_1464" data-name="Group 1464" transform="translate(62.919 0)">
        <path id="Path_744" data-name="Path 744" class="cls-2" d="M92.82,18.232l-1.973-2.7a.509.509,0,0,1-.008-.586l1.932-2.725a.506.506,0,0,0-.173-.735L89.649,9.909a.493.493,0,0,1-.256-.528l.553-3.294a.5.5,0,0,0-.479-.586l-3.336-.14A.5.5,0,0,1,85.669,5l-.925-3.22a.5.5,0,0,0-.685-.322L80.988,2.776a.522.522,0,0,1-.578-.124L78.181.167a.509.509,0,0,0-.76.008l-2.2,2.518a.5.5,0,0,1-.57.132L71.567,1.554a.5.5,0,0,0-.677.33L70.007,5.1a.512.512,0,0,1-.454.372l-3.336.19a.508.508,0,0,0-.471.594l.6,3.286a.5.5,0,0,1-.248.528l-2.923,1.618a.507.507,0,0,0-.165.735l1.973,2.7a.509.509,0,0,1,.008.586l-1.932,2.725a.506.506,0,0,0,.173.735l2.948,1.577a.493.493,0,0,1,.256.528l-.553,3.294a.5.5,0,0,0,.479.586l3.336.14a.5.5,0,0,1,.462.363l.933,3.212a.5.5,0,0,0,.685.322l3.071-1.321a.522.522,0,0,1,.578.124l2.229,2.485a.509.509,0,0,0,.76-.008l2.2-2.518a.5.5,0,0,1,.57-.132L84.274,29.1a.5.5,0,0,0,.677-.33l.883-3.22a.512.512,0,0,1,.454-.372l3.336-.19a.508.508,0,0,0,.471-.594l-.6-3.286a.5.5,0,0,1,.248-.528l2.923-1.618A.486.486,0,0,0,92.82,18.232ZM77.925,24.4a9.066,9.066,0,1,1,9.066-9.066A9.081,9.081,0,0,1,77.925,24.4Z" transform="translate(-62.919 0)"/>
        <path id="Path_745" data-name="Path 745" class="cls-2" d="M270.71,366.513a2.614,2.614,0,0,1-1.866.776,2.848,2.848,0,0,1-.751-.107l-2.13-.644-1.643,1.5c-.058.05-.107.1-.165.14l2.642,8.191a.373.373,0,0,0,.652.116l1.924-2.469a.37.37,0,0,1,.4-.132l3,.875a.375.375,0,0,0,.462-.471Z" transform="translate(-247.539 -336.251)"/>
        <path id="Path_746" data-name="Path 746" class="cls-2" d="M122.418,366.538l-2.13.644a2.583,2.583,0,0,1-.751.107,2.629,2.629,0,0,1-1.866-.776l-2.518,7.786a.373.373,0,0,0,.462.471l3-.875a.365.365,0,0,1,.4.132l1.924,2.469a.373.373,0,0,0,.652-.116l2.642-8.191a1.35,1.35,0,0,1-.165-.14Z" transform="translate(-110.823 -336.251)"/>
        <path id="Path_747" data-name="Path 747" class="cls-2" d="M182.989,115.477l-3.418-.248-1.288-3.171a.718.718,0,0,0-1.329,0l-1.288,3.171-3.418.248a.718.718,0,0,0-.413,1.263l2.617,2.213-.817,3.327a.717.717,0,0,0,1.073.784l2.906-1.808,2.906,1.808a.717.717,0,0,0,1.073-.784l-.817-3.327,2.617-2.213A.715.715,0,0,0,182.989,115.477Z" transform="translate(-162.609 -102.398)"/>
      </g>
    </g>
  </g>
</svg>
